<?xml version="1.0"?>
<svg xmlns="http://www.w3.org/2000/svg" id="Capa_1" enable-background="new 0 0 512 512" height="512px" viewBox="0 0 512 512" width="512px" class=""><g><g><g><g><g><path d="m453.059 462.217h-17.979c-15.501 0-28.111-12.61-28.111-28.111 0-6.979-5.678-12.657-12.657-12.657h-51.897c-4.267 0-7.726-3.459-7.726-7.726s3.459-7.726 7.726-7.726h51.897c15.5 0 28.11 12.61 28.11 28.11 0 6.979 5.678 12.658 12.658 12.658h17.979c4.267 0 7.726 3.459 7.726 7.726s-3.459 7.726-7.726 7.726z" fill="#bc95e2" data-original="#BC95E2" class=""/></g><g><g><path d="m170.951 421.449h-68.567c-4.267 0-7.726-3.459-7.726-7.726s3.459-7.726 7.726-7.726h68.567c4.267 0 7.726 3.459 7.726 7.726s-3.459 7.726-7.726 7.726z" fill="#bc95e2" data-original="#BC95E2" class=""/></g><g><g><g fill="#ffd064"><path d="m239.427 3.499c-3.31-4.665-10.222-4.665-13.533 0-9.94 14.007-28.529 41.814-39.833 68.704-10.118 24.069-4.903 53.791 12.144 70.634 7.875 7.78 17.61 12.011 27.638 12.011h13.634c10.028 0 19.763-4.231 27.638-12.011 17.047-16.843 22.262-46.565 12.144-70.634-11.302-26.89-29.892-54.697-39.832-68.704z" data-original="#FFD064" class="active-path" style="fill:#C8A2C8" data-old_color="#FFD064"/><path d="m267.116 142.837c1.52-1.502 2.941-3.11 4.27-4.803-.429-1.334-.893-2.658-1.436-3.955-8.503-20.343-22.292-41.395-30.506-53.125-3.296-4.707-10.272-4.706-13.567 0-8.277 11.82-22.214 33.103-30.7 53.59-.471 1.137-.881 2.295-1.265 3.461 1.336 1.704 2.765 3.321 4.293 4.831 7.875 7.78 17.61 12.011 27.638 12.011h13.634c10.029.001 19.764-4.23 27.639-12.01z" data-original="#FFD064" class="active-path" style="fill:#C8A2C8" data-old_color="#FFD064"/></g><g><g><path d="m278.062 410.034h68.388v74.502h-68.388z" fill="#dfeaef" data-original="#DFEAEF"/><path d="m278.176 395.06h99.68v37.325h-99.68z" fill="#ac80dd" data-original="#AC80DD"/></g><g><g><g><path d="m180.089 158.424h48.417v293.147h-48.417z" fill="#f2f9ff" data-original="#F2F9FF" class=""/><path d="m228.242 365.689h56.991v-189.091h-62.007-2.446v189.091z" fill="#e2f4ff" data-original="#E2F4FF" class=""/><path d="m247.335 377.055c0-6.277-5.089-11.366-11.366-11.366h-63.342c-6.277 0-11.366 5.089-11.366 11.366v94.174h114.345l-28.271-14.159z" fill="#cbafea" data-original="#CBAFEA"/><path d="m314.226 503.868v-4.671c0-5.157-3.094-9.811-7.85-11.807l-60.541-30.32h-84.573l-60.517 30.32c-4.755 1.996-7.849 6.649-7.849 11.806v4.672c0 4.491 3.641 8.131 8.131 8.131h205.067c4.491.001 8.132-3.64 8.132-8.131z" fill="#bc95e2" data-original="#BC95E2" class=""/></g><path d="m241.764 165.788v-14.726c0-5.971-4.84-10.811-10.811-10.811h-53.309c-5.971 0-10.811 4.84-10.811 10.811v14.726c0 5.971 4.84 10.811 10.811 10.811h53.309c5.97-.001 10.811-4.841 10.811-10.811z" fill="#cbafea" data-original="#CBAFEA"/></g></g><g><g><g><path d="m239.608 377.055v80.016l28.271 14.158h36.183v-94.174c0-6.277-5.089-11.366-11.366-11.366h-64.453c6.277 0 11.365 5.089 11.365 11.366z" fill="#bc95e2" data-original="#BC95E2" class=""/><path d="m364.603 487.391-60.542-30.32h-64.453l60.542 30.32c4.756 1.996 7.85 6.65 7.85 11.807v4.671c0 4.491-3.641 8.132-8.131 8.132h64.453c4.491 0 8.131-3.641 8.131-8.132v-4.671c0-5.158-3.094-9.812-7.85-11.807z" fill="#ac80dd" data-original="#AC80DD"/></g><path d="m234.037 151.061v14.726c0 5.971-4.84 10.811-10.811 10.811h64.453c5.971 0 10.811-4.84 10.811-10.811v-14.726c0-5.971-4.84-10.811-10.811-10.811h-64.453c5.971 0 10.811 4.84 10.811 10.811z" fill="#bc95e2" data-original="#BC95E2" class=""/></g></g><g><path d="m377.856 451.613c-4.267 0-7.726-3.459-7.726-7.726v-60.327c0-4.267 3.459-7.726 7.726-7.726s7.726 3.459 7.726 7.726v60.327c0 4.266-3.459 7.726-7.726 7.726z" fill="#dfeaef" data-original="#DFEAEF"/></g></g></g></g><path d="m110.314 395.06h-48.035c-6.111 0-11.064 4.954-11.064 11.064v15.196c0 6.111 4.954 11.064 11.064 11.064h48.035c6.111 0 11.064-4.954 11.064-11.064v-15.196c0-6.11-4.953-11.064-11.064-11.064z" fill="#dd5790" data-original="#DD5790" class="" style="fill:#DD5790"/></g></g></g></g></g> </svg>
